<?xml version="1.0" standalone="no"?>
<!DOCTYPE svg PUBLIC "-//W3C//DTD SVG 20010904//EN"
 "http://www.w3.org/TR/2001/REC-SVG-20010904/DTD/svg10.dtd">
<svg version="1.0" xmlns="http://www.w3.org/2000/svg"
 width="435.000000pt" height="435.000000pt" viewBox="0 0 435.000000 435.000000"
 preserveAspectRatio="xMidYMid meet">
<metadata>
Created by potrace 1.14, written by Peter Selinger 2001-2017
</metadata>
<g transform="translate(0.000000,435.000000) scale(0.100000,-0.100000)"
fill="#000000" stroke="none">
<path d="M248 3058 c-3 -11 -2 -1657 1 -1750 l1 -28 165 0 c164 0 165 0 166
23 0 12 1 325 1 695 1 370 2 671 3 670 2 -2 51 -192 109 -423 58 -231 136
-541 174 -690 l68 -270 175 -3 174 -2 60 237 c32 131 60 243 61 248 2 10 126
497 194 760 l38 150 1 -697 1 -698 168 0 167 0 0 893 0 892 -271 3 -271 2 -35
-132 c-227 -873 -283 -1077 -289 -1065 -5 8 -12 31 -17 53 -5 21 -35 134 -66
249 -126 471 -236 887 -236 891 0 2 -121 4 -269 4 -206 0 -270 -3 -273 -12z"/>
<path d="M2327 2197 c0 -479 2 -882 2 -894 1 -23 2 -23 166 -23 l165 0 1 28
c0 15 1 321 1 680 1 358 4 652 7 652 4 0 190 -723 207 -805 1 -5 33 -131 71
-280 l68 -270 175 -3 175 -2 60 237 c32 131 60 243 61 248 2 6 5 19 8 30 6 26
136 537 186 730 l38 150 1 -697 1 -698 168 0 167 0 0 893 0 892 -271 3 -270 2
-128 -482 c-70 -266 -129 -491 -132 -500 -2 -10 -6 -26 -9 -35 -2 -10 -14 -57
-27 -106 -23 -90 -29 -93 -47 -21 -5 21 -19 75 -31 119 -25 93 -57 213 -110
415 -21 80 -48 180 -59 223 -12 42 -30 112 -41 155 -12 42 -30 112 -42 155
l-20 77 -272 0 -271 0 2 -873z"/>
</g>
</svg>
